<svg width="57" height="34" viewBox="0 0 57 34" fill="none" xmlns="http://www.w3.org/2000/svg">
<path d="M0 15.623C0 15.623 6.58366 13.0983 6.95885 12.5186C7.33403 11.9388 8.69867 10.2348 9.68767 9.61916C10.6767 9.00349 12.4165 9.00488 13.6106 8.18647C14.8046 7.36806 21.3878 0 21.3878 0C22.0143 0.832507 22.8035 1.52894 23.7074 2.04697C24.9695 2.66078 29.4042 5.66272 30.8709 6.37907C31.8498 6.90136 32.7185 7.60799 33.4291 8.46005L35.7828 8.49408L38.8187 5.79927C38.8187 5.79927 41.1383 7.7437 42.5007 9.00581C43.863 10.2679 44.7522 11.2234 45.6391 11.5981C46.5261 11.9728 48.9137 13.1333 48.9137 13.1333C48.9137 13.1333 48.5409 13.646 50.7901 14.5315C53.0394 15.417 56.9981 17.2603 56.9981 17.2603C56.3331 17.237 55.6712 17.1572 55.0197 17.0217C54.1668 16.8171 46.2189 13.8837 45.8778 14.0883C45.5366 14.2929 46.5261 16.7831 46.5261 16.7831C46.5261 16.7831 43.9338 14.2248 43.2515 13.8497C42.5692 13.4745 41.7167 10.7797 40.6247 10.1314C39.5327 9.48307 38.5782 9.00581 38.341 9.10602C38.1038 9.20622 36.4991 11.1865 36.5331 11.4597C36.5729 11.985 36.5384 12.5132 36.4306 13.0289C36.3281 13.1314 32.2686 16.406 32.2686 16.406C32.2686 16.406 34.4176 13.5747 34.5882 12.5172C34.7588 11.4597 34.6223 11.119 34.0084 11.1865C33.3946 11.2541 32.8829 11.2891 32.8829 11.2891C32.9076 10.9643 32.8625 10.6379 32.7507 10.332C32.6389 10.026 32.4629 9.74755 32.2346 9.51522C31.4842 8.86738 29.0966 7.46872 28.7554 7.16159C28.4857 6.94123 28.1879 6.75771 27.8699 6.61583L29.8138 9.68581C28.8395 9.53099 27.9093 9.17049 27.085 8.6283C25.9935 7.80942 23.4031 4.67139 23.0936 4.97853C22.7841 5.28567 22.889 6.41122 23.0596 6.99101C23.2302 7.57079 24.0849 8.93543 24.0849 9.07152C24.0849 9.20762 22.9594 11.05 23.3006 11.9709C23.5344 12.7129 23.6831 13.4791 23.7438 14.2547C23.7438 14.2547 22.7184 13.0266 22.5157 12.9921C22.313 12.9576 22.8569 10.3658 22.4817 9.44439C22.2092 8.83608 21.8143 8.29046 21.3216 7.84158L21.083 4.3279C21.083 4.3279 20.1975 4.29387 19.7184 5.52149C19.2392 6.74911 18.1151 8.66 18.0466 9.10323C17.9781 9.54646 17.7054 11.6274 17.5339 11.798C17.3624 11.9686 15.3513 12.8896 14.7711 13.2307C14.1908 13.5719 13.2699 14.0496 13.2699 14.0496C13.2699 14.0496 15.2483 12.1737 15.5214 12.0371C15.7945 11.9006 15.4874 10.3658 15.5214 9.75339C15.5554 9.14097 15.5895 8.86786 15.5895 8.86786C15.5895 8.86786 13.7816 10.9144 13.4745 10.9829C13.1673 11.0514 11.0863 10.177 10.3019 10.7498C9.51755 11.3226 8.49407 13.336 8.25498 13.4386C8.01588 13.5411 3.20654 15.5531 2.01247 15.7582C1.34133 15.8892 0.647605 15.8426 0 15.623Z" fill="white"/>
<path d="M7.62681 29.0576H4.71484V25.989H6.79109V24.435H4.71484V21.6275H7.6007V20.1389H3.17397V30.5724H7.62681V29.0576ZM7.62681 30.5854V29.0576H4.71484V25.989H6.79109V24.435H4.71484V21.6275H7.6007V20.1389H3.17397V30.5854H7.62681ZM7.62681 30.5724H3.17397V20.1389H7.6007V21.6275H4.71484V24.435H6.79109V25.989H4.71484V29.0576H7.62681V30.5724ZM15.4665 29.5277V27.7126H14.0954V28.8226C14.0954 28.8922 14.0606 28.9619 13.9909 29.0315C13.93 29.0925 13.8647 29.1229 13.7951 29.1229H12.9332C12.8288 29.1229 12.7417 29.0794 12.6721 28.9924C12.6024 28.9053 12.5676 28.8139 12.5676 28.7181V21.7451C12.5676 21.7015 12.5937 21.658 12.646 21.6145C12.7069 21.5622 12.7591 21.5361 12.8026 21.5361H13.8212C13.8821 21.5361 13.9387 21.5666 13.9909 21.6275C14.0432 21.6798 14.0736 21.7364 14.0824 21.7973C14.0824 21.8147 14.0824 21.8321 14.0824 21.8495C14.0911 21.8582 14.0954 21.8713 14.0954 21.8887V23.0901H15.4535V21.3011C15.4535 21.3011 15.4491 21.2576 15.4404 21.1705C15.4317 21.0747 15.4273 21.0182 15.4273 21.0007C15.3751 20.7396 15.2228 20.5306 14.9703 20.3739C14.7266 20.2173 14.4741 20.1389 14.2129 20.1389H12.3326C12.2107 20.1389 12.0757 20.1563 11.9278 20.1911C11.7798 20.2172 11.6405 20.2695 11.5099 20.3478C11.3793 20.4175 11.2661 20.5176 11.1704 20.6482C11.0833 20.77 11.0398 20.9267 11.0398 21.1183V22.0062V28.8095C11.0398 29.0011 11.0441 29.2056 11.0529 29.4233C11.0616 29.6409 11.1138 29.8368 11.2096 30.0109C11.3053 30.1676 11.449 30.3025 11.6405 30.4157C11.832 30.5289 12.0192 30.5854 12.202 30.5854H13.7298C13.9648 30.5854 14.1912 30.5811 14.4088 30.5724C14.6351 30.555 14.8484 30.4723 15.0487 30.3243C15.1531 30.2459 15.2489 30.1328 15.3359 29.9848C15.423 29.8368 15.4665 29.6844 15.4665 29.5277ZM23.5674 29.0185V21.6928C23.5674 21.4752 23.5239 21.275 23.4368 21.0921C23.3585 20.9006 23.2453 20.7352 23.0973 20.5959C22.958 20.4567 22.7926 20.3478 22.6011 20.2695C22.4183 20.1824 22.218 20.1389 22.0004 20.1389H20.5771C20.3594 20.1389 20.1548 20.1824 19.9633 20.2695C19.7805 20.3478 19.6151 20.4567 19.4671 20.5959C19.3278 20.7352 19.2147 20.9006 19.1276 21.0921C19.0493 21.275 19.0101 21.4752 19.0101 21.6928V29.0185C19.0101 29.2361 19.0493 29.4407 19.1276 29.6322C19.2147 29.815 19.3278 29.9804 19.4671 30.1284C19.6151 30.2677 19.7805 30.3809 19.9633 30.4679C20.1548 30.5463 20.3594 30.5854 20.5771 30.5854H22.0004C22.218 30.5854 22.4183 30.5463 22.6011 30.4679C22.7926 30.3809 22.958 30.2677 23.0973 30.1284C23.2453 29.9804 23.3585 29.815 23.4368 29.6322C23.5239 29.4407 23.5674 29.2361 23.5674 29.0185ZM22.0657 28.7965C22.0657 28.9184 22.0265 29.0185 21.9482 29.0968C21.8698 29.1752 21.7697 29.2143 21.6478 29.2143H20.9819C20.86 29.2143 20.7599 29.1752 20.6815 29.0968C20.6032 29.0185 20.564 28.9184 20.564 28.7965V21.9932C20.564 21.8713 20.6032 21.7712 20.6815 21.6928C20.7599 21.6145 20.86 21.5753 20.9819 21.5753H21.6478C21.7697 21.5753 21.8698 21.6145 21.9482 21.6928C22.0265 21.7712 22.0657 21.8713 22.0657 21.9932V28.7965ZM31.6075 21.6798V20.1389H27.1677V21.6798H28.6302V30.5854H30.1319V21.6798H31.6075ZM39.6397 30.5854L38.817 26.9814C38.8692 26.9466 38.9171 26.9161 38.9606 26.89C39.0042 26.8639 39.0477 26.8378 39.0912 26.8116C39.1696 26.7333 39.2349 26.6636 39.2871 26.6027C39.3393 26.5331 39.3829 26.4634 39.4177 26.3938C39.4612 26.3241 39.496 26.2501 39.5221 26.1718C39.5483 26.0847 39.5744 25.9846 39.6005 25.8714L39.6266 25.4405V22.0585C39.6005 21.8843 39.5831 21.7581 39.5744 21.6798C39.5744 21.5927 39.57 21.5274 39.5613 21.4839C39.5613 21.4404 39.557 21.4012 39.5483 21.3664C39.5396 21.3228 39.5178 21.2576 39.483 21.1705C39.4481 21.0486 39.3785 20.918 39.274 20.7788C39.1783 20.6395 39.0564 20.5132 38.9084 20.4001C38.8301 20.3478 38.743 20.3087 38.6472 20.2825C38.5515 20.2564 38.4557 20.2347 38.36 20.2173C38.2729 20.1998 38.1902 20.1868 38.1119 20.1781C38.0422 20.1694 37.99 20.1563 37.9552 20.1389H35.226V30.5854H36.6493V27.0989C36.6668 27.0989 36.719 27.0989 36.806 27.0989C36.8931 27.0989 36.9932 27.0989 37.1064 27.0989C37.2195 27.0989 37.2892 27.0989 37.3153 27.0989L38.0466 30.5854H39.6397ZM38.1772 24.8529L38.138 25.1924C38.1293 25.2708 38.0814 25.3448 37.9943 25.4144C37.916 25.4753 37.8376 25.5058 37.7593 25.5058H36.6493V21.6537H37.6679C37.7027 21.6537 37.7462 21.6667 37.7985 21.6928C37.8681 21.6928 37.9465 21.7276 38.0335 21.7973C38.1206 21.8669 38.1641 21.9366 38.1641 22.0062L38.1772 22.6069V24.8529ZM44.8489 30.5854V20.1389H43.3341V30.5854H44.8489ZM53.0968 25.7931V21.288C53.0968 20.9311 52.988 20.6656 52.7704 20.4915C52.5615 20.3087 52.2611 20.1998 51.8694 20.165L51.4907 20.1389H48.7746V30.5854H50.2893V27.0075H52.013C52.1523 27.0075 52.2872 26.9683 52.4178 26.89C52.5571 26.8116 52.6746 26.7159 52.7704 26.6027C52.8661 26.4808 52.9445 26.3502 53.0054 26.211C53.0664 26.063 53.0968 25.9237 53.0968 25.7931ZM51.6604 25.1794C51.6343 25.2664 51.5821 25.3404 51.5037 25.4013C51.4254 25.4623 51.3427 25.4928 51.2556 25.4928H50.3024V21.6667H51.3732C51.4428 21.6841 51.5037 21.7233 51.556 21.7842C51.6082 21.8452 51.643 21.9061 51.6604 21.967V25.1794Z" fill="white"/>
</svg>
