<svg width="32" height="32" viewBox="0 0 32 32" fill="none" xmlns="http://www.w3.org/2000/svg">
<g clip-path="url(#clip0)">
<path d="M21.947 15.332C23.219 13.915 24 12.049 24 10C24 5.589 20.411 2 16 2C11.589 2 8 5.589 8 10C8 14.411 11.589 18 16 18C17.555 18 19.003 17.547 20.233 16.776C24.583 18.415 27.578 22.396 27.959 27H4.042C4.301 23.901 5.755 21.011 8.12 18.949C8.537 18.586 8.58 17.955 8.217 17.538C7.855 17.122 7.223 17.078 6.806 17.441C3.751 20.103 2 23.951 2 28C2 28.553 2.448 29 3 29H29C29.553 29 30 28.553 30 28C30 22.514 26.82 17.615 21.947 15.332ZM10 10C10 6.691 12.691 4 16 4C19.309 4 22 6.691 22 10C22 13.309 19.309 16 16 16C12.691 16 10 13.309 10 10Z" fill="#5ED19C"/>
</g>
<defs>
<clipPath id="clip0">
<rect width="32" height="32" fill="white" transform="translate(32 32) rotate(-180)"/>
</clipPath>
</defs>
</svg>
