<svg width="32" height="32" viewBox="0 0 32 32" fill="none" xmlns="http://www.w3.org/2000/svg">
<g clip-path="url(#clip0)">
<path d="M29 27H3C2.448 27 2 26.553 2 26V10C2 9.448 2.448 9 3 9C3.552 9 4 9.448 4 10V25H28V7H3C2.448 7 2 6.552 2 6C2 5.448 2.448 5 3 5H29C29.553 5 30 5.448 30 6V26C30 26.553 29.553 27 29 27Z" fill="#5ED19C"/>
<path d="M16 19C15.744 19 15.488 18.902 15.293 18.707L7.29301 10.707C6.90201 10.316 6.90201 9.68401 7.29301 9.29301C7.68401 8.90201 8.31601 8.90201 8.70701 9.29301L16 16.586L23.293 9.29301C23.684 8.90201 24.316 8.90201 24.707 9.29301C25.098 9.68401 25.098 10.316 24.707 10.707L16.707 18.707C16.512 18.902 16.256 19 16 19Z" fill="#5ED19C"/>
<path d="M24.001 23C23.745 23 23.489 22.902 23.294 22.707L20.292 19.705C19.901 19.314 19.901 18.682 20.292 18.291C20.683 17.9 21.315 17.9 21.706 18.291L24.708 21.293C25.099 21.684 25.099 22.316 24.708 22.707C24.513 22.902 24.257 23 24.001 23Z" fill="#5ED19C"/>
<path d="M8.00098 23C7.74498 23 7.48898 22.902 7.29398 22.707C6.90298 22.316 6.90298 21.684 7.29398 21.293L10.293 18.294C10.684 17.903 11.316 17.903 11.707 18.294C12.098 18.685 12.098 19.317 11.707 19.708L8.70798 22.707C8.51298 22.902 8.25698 23 8.00098 23Z" fill="#5ED19C"/>
</g>
<defs>
<clipPath id="clip0">
<rect width="32" height="32" fill="white"/>
</clipPath>
</defs>
</svg>
