<svg width="32" height="32" viewBox="0 0 32 32" fill="none" xmlns="http://www.w3.org/2000/svg">
<g clip-path="url(#clip0)">
<path d="M29.707 15.793L16.707 2.79301C16.316 2.40201 15.684 2.40201 15.293 2.79301L2.29301 15.793C1.90201 16.184 1.90201 16.816 2.29301 17.207C2.68401 17.598 3.31601 17.598 3.70701 17.207L16 4.91401L24.014 12.928C24.013 12.953 24 12.975 24 13V28H8.00001V18C8.00001 17.447 7.55201 17 7.00001 17C6.44801 17 6.00001 17.447 6.00001 18V29C6.00001 29.553 6.44801 30 7.00001 30H25C25.553 30 26 29.553 26 29V14.914L28.293 17.207C28.488 17.402 28.744 17.5 29 17.5C29.256 17.5 29.512 17.402 29.707 17.207C30.098 16.816 30.098 16.184 29.707 15.793Z" fill="#5ED19C"/>
</g>
<defs>
<clipPath id="clip0">
<rect width="32" height="32" fill="white"/>
</clipPath>
</defs>
</svg>
