<svg width="404" height="399" viewBox="0 0 404 399" fill="none" xmlns="http://www.w3.org/2000/svg">
<path d="M132.916 222.837L73.1903 344.753L130.613 344.845L133.893 230.529" fill="#FCF9DE"/>
<path d="M165.38 142.33C161.64 131.997 157.912 121.663 154.172 111.33C153.063 108.256 151.96 104.829 153.474 101.908C155.496 97.9904 161.231 96.8769 166.029 97.4152C174.674 98.3866 182.653 103.318 186.736 110.2C185.71 108.405 184.66 106.531 184.601 104.51C184.542 102.49 185.779 100.295 187.967 99.7915C189.761 99.373 191.6 100.153 193.198 101.009C198.343 103.766 202.841 107.483 206.314 111.846C205.216 109.776 207.851 107.362 210.41 107.457C212.97 107.552 215.101 109.237 216.774 110.985L221.861 116.866C228.623 113.155 232.389 119.12 226.925 131.999C225.362 135.706 223.413 143.196 223.413 143.196L165.38 142.342" fill="#0E1F3D"/>
<path d="M218.106 179.919C218.106 179.919 187.494 178.419 182.155 179.39C176.803 180.361 169.377 177.445 166.941 173.269C164.505 169.103 165.067 119.715 165.067 119.715L222.487 119.134L218.106 179.919Z" fill="#D39480"/>
<path d="M319.238 232.264L325.611 220.539C325.611 220.539 320.048 208.251 322.811 207.493C325.573 206.735 331.185 216.572 332.549 215.223C333.913 213.874 339.897 197.489 342.137 197.784C344.377 198.08 344.851 199.478 344.851 199.478C344.851 199.478 346.774 195.445 347.746 195.768C348.717 196.102 350.187 196.192 349.746 200.326C349.746 200.326 351.549 198.413 352.079 202.882C352.079 202.882 355.374 203.01 354.969 205.514C354.565 208.018 346.761 246.313 346.761 246.313L319.238 232.264Z" fill="#D39480"/>
<path d="M344.6 199.292C344.689 199.316 344.522 200.284 344.132 201.818C343.742 203.364 343.127 205.476 342.32 207.769C341.5 210.073 340.659 212.114 339.978 213.575C339.297 215.037 338.815 215.908 338.739 215.873C338.651 215.837 338.982 214.907 339.549 213.421C340.116 211.935 340.894 209.87 341.701 207.589C342.508 205.308 343.199 203.219 343.69 201.709C344.181 200.199 344.499 199.268 344.6 199.292Z" fill="#AC6B5C"/>
<path d="M349.551 198.897C349.728 198.946 348.676 202.375 347.22 206.541C345.751 210.717 344.421 214.063 344.257 214.015C344.08 213.966 345.132 210.537 346.588 206.36C348.044 202.195 349.374 198.849 349.551 198.897Z" fill="#AC6B5C"/>
<path d="M352.692 202.583C352.868 202.642 351.954 205.31 350.677 208.554C349.386 211.797 348.207 214.381 348.031 214.321C347.854 214.262 348.768 211.594 350.046 208.35C351.336 205.107 352.528 202.523 352.692 202.583Z" fill="#AC6B5C"/>
<path d="M175.163 163.419L174.758 190.952L217.934 191.587L218.451 156.47L175.163 163.419Z" fill="#D39480"/>
<path d="M217.934 191.587L173.984 190.941L173.723 208.699L217.672 209.346L217.934 191.587Z" fill="#FCF9DE"/>
<path d="M131.379 394.47L129.515 273.861C129.515 273.861 121.152 227.855 136.382 219.945C151.612 212.035 174.986 203.835 174.986 203.835L214.41 204.415C214.41 204.415 264.999 223.469 270.239 228.429C275.478 233.389 275.147 394.6 275.147 394.6L131.379 394.47Z" fill="#FCF9DE"/>
<path d="M270.139 229.169L319.665 337.714L276.548 351.111L270.139 229.169Z" fill="#FCF9DE"/>
<path d="M348.799 244.803L319.493 348.492C319.493 348.492 316.839 364.31 287.346 363.522C255.685 362.691 272.378 326.911 272.378 326.911L318.17 229.876L348.799 244.803Z" fill="#FCF9DE"/>
<path d="M153.394 111.381L2.974 273.772L103.044 341.445L172.664 342.47L389.038 164.827L313.361 95.528L153.394 111.381Z" fill="url(#paint0_linear)"/>
<path d="M320.01 18.4847L316.93 20.334L309.475 10.0538L299.434 18.0253L297 15.5098L310.236 4.99987L320.01 18.4847Z" fill="#FF4676"/>
<path d="M270.614 194.291C267.204 194.24 264.465 191.725 264.509 188.679C264.554 185.634 267.367 183.2 270.777 183.25C274.187 183.3 276.927 185.816 276.882 188.861C276.824 191.906 274.024 194.341 270.614 194.291ZM270.74 185.771C268.889 185.743 267.373 187.067 267.349 188.71C267.325 190.363 268.814 191.72 270.652 191.747C272.503 191.774 274.018 190.45 274.042 188.808C274.067 187.166 272.591 185.798 270.74 185.771Z" fill="#FF4676"/>
<path d="M395.186 141.131C391.776 141.081 389.036 138.565 389.081 135.52C389.126 132.475 391.938 130.041 395.348 130.091C398.758 130.141 401.498 132.657 401.453 135.702C401.396 138.747 398.596 141.181 395.186 141.131ZM395.311 132.623C393.46 132.596 391.945 133.919 391.921 135.562C391.896 137.216 393.385 138.572 395.223 138.599C397.074 138.626 398.59 137.303 398.614 135.66C398.638 134.006 397.149 132.65 395.311 132.623Z" fill="#9A74B6"/>
<path d="M175.658 280.54C173.807 280.513 172.331 279.145 172.356 277.503C172.38 275.86 173.908 274.537 175.746 274.564C177.597 274.591 179.073 275.959 179.049 277.601C179.024 279.243 177.509 280.567 175.658 280.54ZM175.726 275.921C174.725 275.906 173.903 276.624 173.889 277.514C173.876 278.403 174.677 279.145 175.678 279.16C176.68 279.175 177.502 278.457 177.515 277.567C177.528 276.677 176.727 275.936 175.726 275.921Z" fill="#5ED19C"/>
<path d="M244.284 136.27C242.433 136.243 240.957 134.875 240.981 133.233C241.006 131.579 242.534 130.267 244.372 130.294C246.223 130.321 247.699 131.689 247.674 133.331C247.65 134.973 246.122 136.297 244.284 136.27ZM244.352 131.651C243.35 131.636 242.528 132.354 242.515 133.244C242.502 134.133 243.303 134.875 244.304 134.89C245.306 134.905 246.128 134.187 246.141 133.297C246.154 132.407 245.353 131.666 244.352 131.651Z" fill="#5ED19C"/>
<path d="M132.937 165.433C131.086 165.406 129.61 164.038 129.634 162.395C129.658 160.742 131.186 159.429 133.024 159.456C134.875 159.484 136.351 160.852 136.327 162.494C136.303 164.148 134.787 165.46 132.937 165.433ZM133.004 160.825C132.003 160.81 131.181 161.528 131.168 162.418C131.155 163.308 131.955 164.05 132.957 164.064C133.958 164.079 134.78 163.361 134.793 162.471C134.807 161.57 134.006 160.84 133.004 160.825Z" fill="#5ED19C"/>
<path d="M274.816 156.045L272.844 153.939L281.459 147.484L273.227 140.837L275.273 138.802L286.136 147.575L274.816 156.045Z" fill="#FF4676"/>
<path d="M144.831 242.897L147.718 243.122L146.805 252.611L157.285 252.149L157.437 254.741L143.621 255.348L144.831 242.897Z" fill="#0E1F3D"/>
<path d="M306.271 181.16L308.146 181.302L307.549 187.43L314.311 187.131L314.413 188.809L305.494 189.203L306.271 181.16Z" fill="#FFCC5A"/>
<path d="M149.3 305.352L134.286 313.277L132.71 310.915L147.738 302.991L149.3 305.352Z" fill="#EF694B"/>
<path d="M254.541 99.2197L244.112 111.729L241.652 110.084L252.068 97.5862L254.541 99.2197Z" fill="#EF694B"/>
<path d="M348.375 144.396L343.656 144.532L343.826 148.516L340.338 148.624L340.168 144.64L335.475 144.776L335.352 141.923L340.045 141.786L339.876 137.802L343.364 137.694L343.534 141.678L348.252 141.542L348.375 144.396Z" fill="#FF4676"/>
<path d="M156.11 195.845L151.392 195.981L151.559 200.102L148.071 200.21L147.903 196.09L143.21 196.226L143.089 193.27L147.782 193.133L147.614 189.013L151.103 188.904L151.27 193.025L155.989 192.889L156.11 195.845Z" fill="#FF4676"/>
<path d="M89.0649 238.768L87.9503 237.827C89.9691 235.918 92.3002 236.043 94.3526 236.153C96.3163 236.262 98.0266 236.356 99.5441 234.906C101.062 233.457 100.856 231.948 100.615 230.199C100.363 228.37 100.076 226.301 102.083 224.391C104.101 222.482 106.432 222.607 108.485 222.717C110.448 222.826 112.159 222.92 113.676 221.471C115.194 220.021 114.988 218.512 114.747 216.752C114.495 214.923 114.209 212.854 116.228 210.933C118.246 209.023 120.578 209.149 122.63 209.259C124.606 209.368 126.304 209.461 127.834 208.012L128.949 208.953C126.93 210.874 124.611 210.748 122.547 210.627C120.57 210.518 118.873 210.424 117.342 211.873C115.825 213.323 116.031 214.832 116.271 216.592C116.523 218.421 116.81 220.49 114.791 222.411C112.785 224.321 110.454 224.195 108.389 224.085C106.425 223.976 104.715 223.883 103.197 225.332C101.68 226.781 101.886 228.29 102.126 230.039C102.378 231.868 102.665 233.937 100.659 235.847C98.64 237.757 96.3088 237.631 94.2564 237.521C92.2926 237.424 90.5822 237.33 89.0649 238.768Z" fill="#EF635B"/>
<path d="M198.3 224.758L197.185 223.817C199.204 221.908 201.535 222.033 203.588 222.143C205.551 222.252 207.262 222.346 208.779 220.897C210.297 219.447 210.091 217.938 209.85 216.189C209.598 214.36 209.311 212.291 211.318 210.382C213.336 208.472 215.667 208.597 217.72 208.708C219.684 208.816 221.394 208.91 222.911 207.461C224.429 206.011 224.223 204.502 223.982 202.742C223.73 200.913 223.444 198.844 225.463 196.923C227.482 195.013 229.813 195.139 231.865 195.249C233.841 195.358 235.539 195.451 237.069 194.002L238.184 194.943C236.165 196.864 233.846 196.738 231.782 196.617C229.805 196.508 228.108 196.414 226.577 197.863C225.06 199.313 225.266 200.822 225.506 202.582C225.758 204.411 226.045 206.48 224.026 208.401C222.02 210.311 219.689 210.185 217.624 210.075C215.66 209.966 213.95 209.873 212.432 211.322C210.915 212.771 211.121 214.28 211.361 216.029C211.613 217.858 211.9 219.927 209.894 221.837C207.875 223.747 205.544 223.621 203.491 223.511C201.528 223.402 199.817 223.309 198.3 224.758Z" fill="#5ED19C"/>
<path d="M198.936 156.536C198.974 156.537 198.97 156.822 198.849 157.322C198.74 157.823 198.476 158.526 197.97 159.328C197.008 160.911 194.811 162.875 191.658 163.422C188.506 163.946 185.644 162.855 184.089 161.714C183.286 161.143 182.749 160.576 182.425 160.149C182.102 159.722 181.979 159.47 182.017 159.447C182.12 159.38 182.765 160.36 184.36 161.376C185.917 162.38 188.617 163.332 191.528 162.839C194.439 162.334 196.544 160.551 197.567 159.106C198.628 157.638 198.81 156.512 198.936 156.536Z" fill="#AC6B5C"/>
<path d="M201.324 143.327C200.893 143.298 200.538 142.483 200.681 141.389C200.808 140.456 201.176 139.617 201.619 139.646C202.05 139.676 202.405 140.491 202.263 141.584C202.135 142.517 201.78 143.356 201.324 143.327Z" fill="#0E1F3D"/>
<path d="M205.87 132.545C205.384 132.789 204.765 132.688 204.157 132.634C203.549 132.568 202.941 132.524 202.409 132.505C201.877 132.486 201.268 132.488 200.659 132.514C200.05 132.516 199.428 132.575 198.963 132.295C198.511 132.037 198.343 131.35 198.913 130.526C199.445 129.724 200.801 128.877 202.563 128.937C204.324 129.008 205.604 129.94 206.073 130.78C206.555 131.642 206.342 132.324 205.87 132.545Z" fill="#0E1F3D"/>
<path d="M175.457 142.547C175.027 142.518 174.671 141.703 174.814 140.61C174.942 139.676 175.309 138.837 175.752 138.867C176.183 138.896 176.539 139.711 176.396 140.804C176.268 141.738 175.901 142.576 175.457 142.547Z" fill="#0E1F3D"/>
<path d="M179.02 135.629C178.535 135.873 177.915 135.773 177.307 135.718C176.7 135.652 176.092 135.609 175.56 135.59C175.027 135.57 174.419 135.573 173.81 135.598C173.201 135.601 172.579 135.66 172.114 135.379C171.661 135.122 171.494 134.435 172.064 133.61C172.596 132.808 173.952 131.961 175.714 132.021C177.475 132.093 178.754 133.024 179.224 133.864C179.706 134.727 179.48 135.408 179.02 135.629Z" fill="#0E1F3D"/>
<path d="M218.761 154.318C218.761 154.318 227.994 155.036 228.087 148.683C228.181 142.342 219.705 142.73 219.705 142.73L218.761 154.318Z" fill="#D39480"/>
<path d="M221.33 152.063C221.332 151.961 222.016 152.005 222.934 151.63C223.852 151.279 224.981 150.372 225.179 149.005C225.415 147.64 224.62 146.476 223.855 145.906C223.078 145.313 222.421 145.177 222.447 145.087C222.448 145.018 223.184 145.006 224.139 145.568C224.604 145.86 225.105 146.301 225.451 146.91C225.809 147.52 225.963 148.298 225.837 149.084C225.711 149.869 225.321 150.57 224.781 151.064C224.254 151.559 223.641 151.858 223.106 152.009C222.024 152.324 221.317 152.12 221.33 152.063Z" fill="#AC6B5C"/>
<path d="M225.426 148.598C225.476 148.656 225.359 148.848 225.039 149.026C224.72 149.204 224.198 149.322 223.616 149.256C223.046 149.191 222.568 148.933 222.318 148.69C222.055 148.446 221.995 148.229 222.059 148.184C222.213 148.083 222.789 148.571 223.701 148.664C224.599 148.803 225.314 148.471 225.426 148.598Z" fill="#AC6B5C"/>
<path d="M167.749 154.549C167.749 154.549 158.499 154.994 158.593 148.642C158.686 142.3 167.147 142.938 167.147 142.938L167.749 154.549Z" fill="#D39480"/>
<path d="M165.248 152.208C165.26 152.265 164.559 152.46 163.474 152.124C162.944 151.957 162.34 151.64 161.827 151.131C161.315 150.621 160.945 149.908 160.83 149.119C160.728 148.331 160.904 147.558 161.28 146.959C161.644 146.359 162.158 145.933 162.631 145.655C163.602 145.11 164.337 145.155 164.336 145.224C164.36 145.316 163.699 145.431 162.905 146.001C162.11 146.549 161.282 147.689 161.49 149.061C161.647 150.443 162.749 151.384 163.657 151.751C164.564 152.129 165.249 152.116 165.248 152.208Z" fill="#AC6B5C"/>
<path d="M161.256 148.635C161.372 148.511 162.064 148.852 162.978 148.752C163.892 148.685 164.495 148.215 164.633 148.32C164.696 148.366 164.629 148.582 164.359 148.818C164.102 149.054 163.617 149.286 163.046 149.346C162.474 149.395 161.944 149.261 161.63 149.074C161.315 148.887 161.204 148.691 161.256 148.635Z" fill="#AC6B5C"/>
<path d="M275.897 395.353C275.884 395.353 275.874 395.227 275.864 394.987C275.856 394.714 275.848 394.36 275.829 393.926C275.818 392.956 275.801 391.576 275.775 389.83C275.776 388.05 275.732 385.882 275.655 383.36C275.591 380.838 275.532 377.962 275.376 374.788C275.152 368.442 274.655 360.883 274.081 352.501C273.456 344.118 272.678 334.912 271.806 325.248C270.049 305.92 268.545 288.398 267.869 275.703C267.675 272.528 267.565 269.652 267.463 267.129C267.348 264.606 267.279 262.438 267.254 260.658C267.229 258.912 267.198 257.543 267.187 256.562C267.181 256.117 267.186 255.774 267.19 255.501C267.194 255.261 267.196 255.136 267.208 255.136C267.221 255.136 267.232 255.262 267.254 255.502C267.275 255.776 267.295 256.118 267.327 256.564C267.376 257.534 267.432 258.904 267.52 260.65C267.583 262.431 267.69 264.6 267.844 267.112C267.984 269.635 268.119 272.501 268.352 275.676C269.141 288.361 270.722 305.862 272.479 325.201C273.338 334.865 274.103 344.082 274.702 352.464C275.251 360.857 275.698 368.416 275.858 374.772C275.988 377.946 276.022 380.821 276.048 383.354C276.1 385.876 276.093 388.055 276.054 389.834C276.029 391.579 275.996 392.947 275.981 393.928C275.962 394.373 275.957 394.715 275.94 394.989C275.912 395.228 275.897 395.353 275.897 395.353Z" fill="#C4AF9B"/>
<path d="M294.343 320.572C294.165 320.569 294.075 311.202 294.156 299.647C294.237 288.092 294.439 278.717 294.629 278.72C294.806 278.723 294.897 288.09 294.816 299.645C294.734 311.2 294.52 320.563 294.343 320.572Z" fill="#C4AF9B"/>
<path d="M303.144 316.161C302.966 316.192 300.969 307.961 298.697 297.786C296.413 287.599 294.722 279.326 294.9 279.295C295.077 279.263 297.074 287.495 299.346 297.67C301.618 307.856 303.322 316.129 303.144 316.161Z" fill="#C4AF9B"/>
<path d="M346.335 256.312C346.244 256.459 338.75 253.051 329.596 248.707C320.43 244.363 313.078 240.73 313.157 240.582C313.248 240.435 320.729 243.842 329.895 248.187C339.062 252.52 346.426 256.165 346.335 256.312Z" fill="#C4AF9B"/>
<path d="M326.678 233.366C326.841 233.437 325.714 235.942 324.148 238.976C322.582 241.999 321.177 244.396 321.014 244.326C320.85 244.255 321.977 241.75 323.543 238.716C325.109 235.693 326.514 233.295 326.678 233.366Z" fill="#C4AF9B"/>
<path d="M331.999 236.182C332.026 236.103 332.166 236.048 332.329 236.164C332.48 236.269 332.615 236.545 332.408 236.839C332.369 236.895 332.318 236.94 332.254 236.973L331.973 237.14L331.811 236.91C331.6 236.599 331.794 236.362 331.934 236.296C332.1 236.218 332.214 236.277 332.225 236.345C332.237 236.414 332.223 236.494 332.26 236.54C332.273 236.563 332.298 236.586 332.31 236.598C332.336 236.598 332.247 236.608 332.247 236.608L331.906 236.523L331.893 236.512C331.881 236.489 332.01 236.342 331.999 236.182Z" fill="#C4AF9B"/>
<path d="M330.673 239.312C330.71 239.381 330.746 239.484 330.849 239.428C330.938 239.35 330.927 239.258 330.914 239.258C330.902 239.246 330.813 239.234 330.723 239.312C330.659 239.403 330.772 239.438 330.848 239.474C330.923 239.509 331.011 239.59 330.882 239.702C330.729 239.814 330.527 239.766 330.439 239.673C330.339 239.592 330.291 239.409 330.407 239.273C330.548 239.161 330.636 239.254 330.673 239.312Z" fill="#C4AF9B"/>
<path d="M193 391.886C192.823 391.883 193.33 347.08 194.143 291.832C194.956 236.562 195.768 191.775 195.945 191.777C196.123 191.78 195.616 236.571 194.802 291.842C193.989 347.101 193.191 391.889 193 391.886Z" fill="#C4AF9B"/>
<path d="M208.701 230.489C208.638 230.488 208.643 230.18 208.472 229.676C208.302 229.171 207.907 228.447 207.079 227.899C206.275 227.339 204.961 227.035 203.687 227.449C202.426 227.819 201.331 229 201.323 230.392C201.29 231.783 202.35 232.997 203.599 233.403C204.861 233.844 206.171 233.578 207.003 233.042C207.86 232.519 208.264 231.806 208.448 231.307C208.621 230.796 208.638 230.488 208.701 230.489C208.739 230.49 208.811 230.799 208.689 231.356C208.566 231.902 208.187 232.729 207.264 233.377C206.367 234.026 204.866 234.391 203.377 233.902C201.9 233.458 200.615 232.024 200.652 230.371C200.664 228.705 201.99 227.322 203.479 226.922C204.982 226.476 206.472 226.897 207.35 227.56C208.253 228.235 208.608 229.062 208.714 229.622C208.82 230.183 208.727 230.49 208.701 230.489Z" fill="#C4AF9B"/>
<path d="M208.253 260.942C208.19 260.941 208.194 260.633 208.024 260.128C207.854 259.624 207.459 258.9 206.63 258.351C205.827 257.792 204.513 257.487 203.239 257.891C201.978 258.26 200.883 259.442 200.876 260.833C200.842 262.225 201.902 263.438 203.152 263.844C204.413 264.285 205.723 264.019 206.555 263.495C207.412 262.971 207.815 262.259 208 261.759C208.173 261.249 208.19 260.941 208.253 260.942C208.291 260.942 208.363 261.251 208.241 261.809C208.118 262.354 207.738 263.182 206.816 263.83C205.919 264.478 204.417 264.844 202.928 264.354C201.452 263.91 200.167 262.477 200.204 260.823C200.215 259.158 201.542 257.774 203.031 257.374C204.534 256.929 206.024 257.35 206.902 258.013C207.805 258.688 208.16 259.514 208.266 260.075C208.372 260.636 208.279 260.942 208.253 260.942Z" fill="#C4AF9B"/>
<path d="M207.805 291.394C207.742 291.393 207.746 291.086 207.576 290.581C207.406 290.077 207.011 289.352 206.182 288.804C205.379 288.244 204.065 287.94 202.791 288.355C201.53 288.724 200.435 289.906 200.427 291.297C200.394 292.689 201.454 293.902 202.703 294.308C203.965 294.749 205.275 294.483 206.107 293.948C206.964 293.424 207.367 292.711 207.552 292.212C207.725 291.701 207.742 291.393 207.805 291.394C207.843 291.395 207.915 291.704 207.792 292.261C207.67 292.807 207.29 293.634 206.368 294.282C205.471 294.931 203.969 295.297 202.48 294.807C201.003 294.363 199.718 292.93 199.755 291.276C199.767 289.611 201.094 288.227 202.583 287.827C204.086 287.381 205.576 287.802 206.453 288.466C207.356 289.14 207.712 289.967 207.818 290.528C207.924 291.088 207.83 291.395 207.805 291.394Z" fill="#C4AF9B"/>
<path d="M207.357 321.858C207.293 321.857 207.298 321.549 207.128 321.045C206.958 320.541 206.563 319.816 205.734 319.268C204.931 318.708 203.617 318.404 202.343 318.807C201.082 319.176 199.987 320.358 199.979 321.75C199.946 323.141 201.006 324.354 202.255 324.761C203.517 325.201 204.826 324.935 205.658 324.411C206.515 323.888 206.919 323.175 207.104 322.676C207.276 322.165 207.294 321.846 207.357 321.858C207.395 321.859 207.466 322.168 207.344 322.725C207.222 323.271 206.842 324.098 205.92 324.746C205.022 325.395 203.521 325.76 202.032 325.271C200.555 324.827 199.27 323.393 199.307 321.74C199.319 320.074 200.645 318.691 202.135 318.291C203.637 317.845 205.127 318.266 206.005 318.929C206.908 319.604 207.264 320.431 207.37 320.991C207.476 321.541 207.382 321.859 207.357 321.858Z" fill="#C4AF9B"/>
<path d="M206.909 352.311C206.845 352.31 206.85 352.002 206.68 351.498C206.51 350.993 206.115 350.269 205.286 349.72C204.483 349.161 203.168 348.856 201.895 349.26C200.634 349.629 199.539 350.811 199.531 352.202C199.498 353.594 200.558 354.807 201.807 355.213C203.068 355.654 204.378 355.388 205.21 354.864C206.067 354.341 206.471 353.628 206.656 353.129C206.828 352.618 206.845 352.31 206.909 352.311C206.947 352.311 207.018 352.621 206.896 353.178C206.774 353.724 206.394 354.551 205.471 355.199C204.574 355.847 203.073 356.213 201.584 355.723C200.107 355.28 198.822 353.846 198.859 352.192C198.871 350.527 200.197 349.143 201.687 348.743C203.189 348.298 204.679 348.719 205.557 349.382C206.46 350.057 206.816 350.884 206.921 351.444C207.027 352.005 206.934 352.311 206.909 352.311Z" fill="#C4AF9B"/>
<path d="M206.461 382.764C206.397 382.763 206.402 382.455 206.232 381.95C206.062 381.446 205.666 380.721 204.838 380.173C204.034 379.613 202.72 379.309 201.446 379.724C200.186 380.093 199.09 381.275 199.083 382.666C199.049 384.058 200.109 385.271 201.359 385.677C202.62 386.118 203.93 385.852 204.762 385.317C205.619 384.793 206.023 384.08 206.208 383.581C206.38 383.07 206.397 382.763 206.461 382.764C206.499 382.764 206.57 383.073 206.448 383.63C206.326 384.176 205.946 385.003 205.023 385.651C204.126 386.3 202.625 386.666 201.136 386.176C199.659 385.732 198.374 384.299 198.411 382.645C198.423 380.98 199.749 379.596 201.238 379.196C202.741 378.75 204.231 379.171 205.109 379.835C206.012 380.51 206.367 381.336 206.473 381.897C206.579 382.457 206.486 382.764 206.461 382.764Z" fill="#C4AF9B"/>
<path d="M217.734 205.183C217.733 205.228 216.947 205.217 215.515 205.161C215.16 205.145 214.755 205.15 214.324 205.098C213.881 205.035 213.413 204.971 212.92 204.895C212.414 204.808 211.869 204.777 211.313 204.632C210.745 204.487 210.164 204.341 209.545 204.184C207.096 203.475 204.261 202.258 201.692 200.19C200.414 199.167 199.202 197.951 198.17 196.544C197.138 195.137 196.21 193.606 195.627 191.864L196.274 191.816C196.26 191.942 196.232 192.078 196.218 192.203C195.81 195.814 193.834 199.093 191.105 201.06C188.412 203.086 185.405 204.091 182.899 204.681C180.367 205.26 178.247 205.434 176.801 205.493C176.077 205.517 175.507 205.52 175.127 205.503C174.747 205.486 174.544 205.46 174.544 205.437C174.545 205.391 175.344 205.392 176.779 205.264C178.213 205.137 180.296 204.906 182.778 204.28C185.234 203.655 188.153 202.614 190.705 200.644C193.307 198.72 195.166 195.622 195.56 192.137C195.574 192.011 195.601 191.875 195.616 191.761L195.814 190.383L196.263 191.713C196.81 193.341 197.713 194.872 198.707 196.221C199.701 197.593 200.863 198.786 202.104 199.785C204.571 201.818 207.317 203.044 209.69 203.787C210.296 203.955 210.865 204.112 211.42 204.268C211.963 204.425 212.508 204.467 212.988 204.577C213.481 204.664 213.936 204.739 214.366 204.825C214.796 204.9 215.189 204.906 215.544 204.945C216.949 205.057 217.734 205.137 217.734 205.183Z" fill="#C4AF9B"/>
<path d="M191.112 155.771C191.124 155.805 190.817 155.995 190.192 156.237C189.873 156.357 189.478 156.489 188.97 156.538C188.475 156.588 187.854 156.544 187.276 156.228C186.986 156.075 186.711 155.843 186.538 155.533C186.365 155.222 186.307 154.879 186.286 154.536C186.284 153.863 186.319 153.214 186.342 152.484C186.401 151.036 186.475 149.474 186.55 147.832C186.713 144.527 186.909 141.541 187.08 139.376C187.251 137.211 187.398 135.878 187.487 135.879C187.575 135.881 187.593 137.227 187.536 139.394C187.492 141.561 187.372 144.548 187.209 147.854C187.121 149.495 187.022 151.056 186.95 152.504C186.917 153.907 186.49 155.349 187.509 155.866C188.452 156.405 189.483 156.158 190.094 156.007C190.743 155.845 191.1 155.725 191.112 155.771Z" fill="#AC6B5C"/>
<path d="M163.568 124.199C164.168 123.945 190.279 129.612 218.963 121.672L220.829 142.176L224.182 118.543L163.401 118.276L163.568 124.199Z" fill="#0E1F3D"/>
<g opacity="0.28">
<path opacity="0.28" d="M180.152 150.088C180.154 151.64 178.133 152.876 175.67 153.102C173.207 153.306 170.95 152.428 170.605 150.917C170.259 149.407 172.236 147.781 175.041 147.549C177.86 147.294 180.149 148.56 180.152 150.088Z" fill="#F29680"/>
</g>
<g opacity="0.28">
<path opacity="0.28" d="M213.379 149.551C213.37 151.011 211.477 152.181 209.166 152.386C206.843 152.58 204.725 151.75 204.404 150.331C204.082 148.912 205.93 147.387 208.584 147.153C211.225 146.918 213.388 148.102 213.379 149.551Z" fill="#F29680"/>
</g>
<path d="M174.937 178.771C174.937 178.771 183.038 182.29 193.96 181.937L174.871 183.242L174.937 178.771Z" fill="#AC6B5C"/>
<path d="M2.07055 273.365L17.2047 344.351L171.693 346.625L171.796 339.645L129.986 337.535L116.958 275.056L2.07055 273.365Z" fill="#0E1F3D"/>
<path d="M69.5774 344.749C69.5774 344.749 66.1174 338.617 69.6709 338.396C73.2242 338.186 73.1736 341.619 73.1736 341.619C73.1736 341.619 72.1426 331.553 75.3927 332.126C78.6429 332.698 80.0169 340.134 80.0169 340.134C80.0169 340.134 80.3941 334.321 82.4653 334.876C84.5239 335.431 86.2334 340.75 86.2334 340.75C86.2334 340.75 87.1764 336.976 89.8301 337.586C92.4838 338.195 94.639 345.106 94.639 345.106L69.5775 344.737L69.5774 344.749Z" fill="#D39480"/>
<path opacity="0.37" d="M73.3077 308.831C73.2385 313.53 68.4413 317.282 62.5847 317.195C56.7409 317.109 52.0559 313.23 52.1252 308.52C52.1944 303.821 56.9916 300.07 62.8355 300.156C68.6792 300.253 73.3768 304.132 73.3077 308.831Z" fill="#FCF9DE"/>
<path d="M69.2599 309.046C69.2144 312.137 66.2237 314.614 62.5855 314.56C58.9473 314.507 56.0306 311.954 56.0763 308.852C56.1218 305.761 59.1125 303.284 62.7506 303.337C66.3888 303.391 69.3054 305.955 69.2599 309.046Z" fill="#FCF9DE"/>
<path d="M176.914 21.0875C173.339 21.0349 170.475 18.3917 170.521 15.2096C170.568 12.0161 173.509 9.46978 177.084 9.52239C180.659 9.57499 183.524 12.2182 183.477 15.4003C183.43 18.5824 180.489 21.1401 176.914 21.0875ZM177.045 12.1685C175.106 12.1399 173.513 13.5197 173.488 15.2533C173.462 16.9869 175.013 18.4129 176.953 18.4414C178.892 18.47 180.485 17.0903 180.51 15.3566C180.536 13.623 178.985 12.197 177.045 12.1685Z" fill="#9A74B6"/>
<defs>
<linearGradient id="paint0_linear" x1="-148.811" y1="344.91" x2="82.4628" y2="89.5893" gradientUnits="userSpaceOnUse">
<stop stop-color="#54A2EB"/>
<stop offset="1" stop-color="#56ABE3" stop-opacity="0"/>
</linearGradient>
</defs>
</svg>
