<svg width="187" height="143" viewBox="0 0 187 143" fill="none" xmlns="http://www.w3.org/2000/svg">
<path d="M5.12116 140.008L0.0607084 135.805C9.22237 127.275 19.8042 127.839 29.1208 128.333C38.0347 128.821 45.7983 129.241 52.6851 122.767C59.5718 116.293 58.6351 109.551 57.5414 101.737C56.3955 93.5648 55.0926 84.3201 64.1968 75.7892C73.3584 67.2592 83.9402 67.8227 93.2569 68.3166C102.171 68.8046 109.935 69.2246 116.821 62.7508C123.708 56.2771 122.771 49.5351 121.678 41.6697C120.532 33.4976 119.229 24.253 128.392 15.672C137.554 7.14191 148.135 7.70538 157.452 8.19927C166.423 8.68808 174.13 9.10729 181.074 2.63436L186.135 6.83738C176.972 15.4184 166.448 14.8558 157.074 14.3101C148.103 13.8213 140.397 13.4021 133.453 19.875C126.566 26.3488 127.503 33.0906 128.595 40.956C129.741 49.1281 131.044 58.3728 121.882 66.9538C112.778 75.4848 102.196 74.9212 92.8216 74.4265C83.9078 73.9385 76.1441 73.5185 69.2574 79.9922C62.3706 86.466 63.3074 93.2079 64.401 101.022C65.547 109.194 66.8498 118.439 57.7457 126.97C48.584 135.5 38.0022 134.937 28.6856 134.443C19.771 134.006 12.0072 133.586 5.12116 140.008Z" fill="#EF635B"/>
</svg>
