<svg width="32" height="32" viewBox="0 0 32 32" fill="none" xmlns="http://www.w3.org/2000/svg">
<g clip-path="url(#clip0)">
<path d="M29 27H3C2.448 27 2 26.553 2 26V10C2 9.448 2.448 9 3 9C3.552 9 4 9.448 4 10V25H28V7H3C2.448 7 2 6.552 2 6C2 5.448 2.448 5 3 5H29C29.553 5 30 5.448 30 6V26C30 26.553 29.553 27 29 27Z" fill="#FF4676"/>
<path d="M15.9998 19C15.7438 19 15.4878 18.902 15.2928 18.707L7.29276 10.707C6.90176 10.316 6.90176 9.68401 7.29276 9.29301C7.68376 8.90201 8.31576 8.90201 8.70676 9.29301L15.9998 16.586L23.2928 9.29301C23.6838 8.90201 24.3158 8.90201 24.7068 9.29301C25.0978 9.68401 25.0978 10.316 24.7068 10.707L16.7068 18.707C16.5118 18.902 16.2558 19 15.9998 19Z" fill="#FF4676"/>
<path d="M24.0008 23C23.7448 23 23.4888 22.902 23.2938 22.707L20.2918 19.705C19.9008 19.314 19.9008 18.682 20.2918 18.291C20.6828 17.9 21.3148 17.9 21.7058 18.291L24.7078 21.293C25.0988 21.684 25.0988 22.316 24.7078 22.707C24.5128 22.902 24.2568 23 24.0008 23Z" fill="#FF4676"/>
<path d="M8.00123 23C7.74523 23 7.48923 22.902 7.29423 22.707C6.90323 22.316 6.90323 21.684 7.29423 21.293L10.2932 18.294C10.6842 17.903 11.3162 17.903 11.7072 18.294C12.0982 18.685 12.0982 19.317 11.7072 19.708L8.70823 22.707C8.51323 22.902 8.25723 23 8.00123 23Z" fill="#FF4676"/>
</g>
<defs>
<clipPath id="clip0">
<rect width="32" height="32" fill="white"/>
</clipPath>
</defs>
</svg>
