<svg width="14" height="27" viewBox="0 0 14 27" fill="none" xmlns="http://www.w3.org/2000/svg">
<path d="M8.99784 26.0028C8.87509 26.008 8.79653 26.0182 8.71797 26.0182C7.03872 26.0182 5.36438 26.0131 3.68512 26.0234C3.44944 26.0234 3.38561 25.9566 3.38561 25.71C3.39052 21.6202 3.39052 17.5254 3.39052 13.4356C3.39052 13.3278 3.39052 13.2199 3.39052 13.0811C2.47724 13.0811 1.58852 13.0811 0.685059 13.0811C0.685059 11.622 0.685059 10.1885 0.685059 8.71397C0.77835 8.71397 0.866732 8.71397 0.950203 8.71397C1.68672 8.71397 2.42323 8.70883 3.15974 8.7191C3.34633 8.7191 3.39543 8.66259 3.39543 8.47249C3.38561 7.32675 3.38561 6.17587 3.39543 5.03013C3.40034 4.22862 3.52309 3.44767 3.87662 2.72323C4.38236 1.7008 5.1827 1.03802 6.19418 0.62699C7.01908 0.287892 7.88816 0.164583 8.76216 0.14917C10.1861 0.128618 11.61 0.138894 13.0339 0.133756C13.1665 0.133756 13.2745 0.128618 13.2745 0.323857C13.2696 1.73677 13.2696 3.14967 13.2696 4.56258C13.2696 4.578 13.2647 4.59341 13.2451 4.6602C13.1616 4.6602 13.0683 4.6602 12.975 4.6602C12.0912 4.6602 11.2074 4.65506 10.3236 4.6602C9.81292 4.6602 9.40047 4.87599 9.14024 5.34354C9.06168 5.48226 9.01257 5.66208 9.01257 5.82649C8.99784 6.69993 9.01257 7.57336 9.00275 8.4468C9.00275 8.65231 9.06167 8.70883 9.25317 8.70883C10.4807 8.69855 11.7082 8.70369 12.9357 8.70369C13.0339 8.70369 13.1272 8.70369 13.2942 8.70369C13.1223 10.1731 12.9554 11.6117 12.7835 13.0657C11.5069 13.0657 10.2646 13.0657 8.99784 13.0657C8.99784 17.3867 8.99784 21.6819 8.99784 26.0028Z" fill="#5ED19C"/>
</svg>
