<svg width="26" height="27" viewBox="0 0 26 27" fill="none" xmlns="http://www.w3.org/2000/svg">
<path d="M25.1274 13.473C25.1274 15.2353 25.0919 17.0027 25.1375 18.765C25.2135 21.8845 23.2526 24.295 20.7545 25.3686C19.7513 25.799 18.6973 26.0269 17.6079 26.0269C14.1978 26.032 10.7826 26.0776 7.37253 26.0117C4.80354 25.9611 2.69059 24.8875 1.17555 22.7707C0.380027 21.6566 0 20.3906 0 19.0182C0 15.3872 0 11.7613 0 8.13032C0 5.16781 1.4441 3.09658 4.00802 1.74953C5.12277 1.16715 6.33379 0.919012 7.59548 0.913948C10.9042 0.913948 14.2181 0.893691 17.5269 0.924076C20.0958 0.944332 22.2392 1.92677 23.8201 3.99293C24.7018 5.14755 25.1274 6.47435 25.1274 7.93282C25.1274 9.77616 25.1274 11.6246 25.1274 13.473ZM1.86973 13.473C1.86973 15.3315 1.86973 17.185 1.86973 19.0435C1.86973 19.874 2.06228 20.6539 2.49298 21.3578C3.62293 23.2062 5.33051 24.1076 7.44853 24.1431C10.8485 24.1937 14.2536 24.1633 17.6586 24.1532C18.4947 24.1532 19.3054 23.981 20.0604 23.6215C22.1176 22.639 23.2678 21.0742 23.2577 18.7245C23.2374 15.1289 23.2526 11.5334 23.2526 7.93789C23.2526 6.92 22.9638 5.9882 22.3608 5.16781C21.1954 3.59287 19.5841 2.81806 17.6586 2.7978C14.2637 2.75729 10.8688 2.78261 7.47387 2.78767C6.74928 2.78767 6.05003 2.93453 5.37105 3.18774C3.50638 3.88152 1.77346 5.63877 1.85453 8.22654C1.91534 9.97873 1.86973 11.7258 1.86973 13.473Z" fill="#5ED19C"/>
<path d="M12.5918 18.841C9.32352 18.841 6.68867 16.238 6.6836 12.997C6.67853 9.80657 9.33366 7.19347 12.5816 7.19347C15.8397 7.18841 18.4847 9.79644 18.4898 13.0122C18.4898 16.2228 15.8499 18.8359 12.5918 18.841ZM12.5918 16.9672C14.8162 16.9672 16.62 15.1897 16.615 13.002C16.6099 10.8346 14.8061 9.06214 12.5918 9.06214C10.3673 9.06214 8.55333 10.8295 8.55333 13.0122C8.5584 15.1999 10.3673 16.9723 12.5918 16.9672Z" fill="#5ED19C"/>
<path d="M19.1734 5.42104C19.8575 5.42104 20.4148 6.00343 20.4148 6.71749C20.4098 7.43156 19.8473 8.00889 19.1633 8.00382C18.4894 7.99876 17.937 7.42143 17.937 6.72256C17.932 6.00849 18.4894 5.42104 19.1734 5.42104Z" fill="#5ED19C"/>
</svg>
