<svg width="27" height="27" viewBox="0 0 27 27" fill="none" xmlns="http://www.w3.org/2000/svg">
<g clip-path="url(#clip0)">
<path d="M9.48005 26.1363C9.48005 26.013 9.48005 25.8948 9.48005 25.7767C9.48005 20.2432 9.48005 14.7149 9.48005 9.1814C9.48005 9.02726 9.47023 8.90395 9.68627 8.90395C11.2477 8.91423 12.814 8.90909 14.3754 8.90909C14.4147 8.90909 14.454 8.91937 14.5178 8.92964C14.5178 9.64894 14.5178 10.358 14.5178 11.0721C14.5374 11.0773 14.5522 11.0875 14.5718 11.0927C14.7682 10.8255 14.9548 10.5481 15.161 10.286C15.7601 9.51536 16.5113 8.95019 17.3951 8.6111C17.8763 8.42613 18.4017 8.3131 18.9074 8.28741C19.6047 8.25658 20.3166 8.26686 21.004 8.39017C22.1334 8.59054 23.1301 9.1146 23.955 9.97263C24.7357 10.7793 25.2513 11.7503 25.5311 12.8447C25.6784 13.4253 25.7717 14.0213 25.8601 14.6121C25.919 15.0231 25.9485 15.4444 25.9485 15.8555C25.9534 19.1951 25.9534 22.5347 25.9534 25.8743C25.9534 25.9565 25.9485 26.0387 25.9436 26.1466C25.8503 26.1466 25.7717 26.1466 25.6932 26.1466C24.1858 26.1466 22.6833 26.1414 21.1759 26.1517C20.9255 26.1517 20.8813 26.0644 20.8813 25.828C20.8862 22.7556 20.896 19.678 20.8764 16.6056C20.8715 16.0661 20.8224 15.5061 20.6898 14.9872C20.4492 14.0778 19.8993 13.4201 19.0253 13.0862C18.2888 12.8036 17.5424 12.7522 16.7863 12.9526C15.9515 13.1735 15.3771 13.7541 14.945 14.5196C14.6111 15.1105 14.5473 15.763 14.5424 16.4155C14.5227 19.5342 14.5325 22.6477 14.5325 25.7664C14.5325 25.8846 14.5325 26.0027 14.5325 26.1312C12.8386 26.1363 11.174 26.1363 9.48005 26.1363Z" fill="#5ED19C"/>
<path d="M6.31786 17.6023C6.31786 20.3408 6.31295 23.0792 6.32277 25.8177C6.32277 26.0643 6.27367 26.1568 6.01344 26.1517C4.51586 26.1363 3.01828 26.1363 1.52071 26.1517C1.2752 26.1517 1.22119 26.0643 1.22119 25.828C1.2261 20.3253 1.2261 14.8176 1.22119 9.31493C1.22119 9.09401 1.28011 9.01694 1.49616 9.01694C3.00846 9.02721 4.52077 9.02721 6.03799 9.01694C6.27367 9.01694 6.31786 9.10942 6.31786 9.33035C6.31786 12.0894 6.31786 14.8484 6.31786 17.6023Z" fill="#5ED19C"/>
<path d="M3.71578 0.246653C5.3312 0.20555 6.29849 1.4335 6.3034 2.93889C6.30831 4.48024 5.27719 5.63112 3.65686 5.62598C2.14946 5.62598 1.08397 4.49566 1.08888 2.89778C1.09379 1.40267 2.12982 0.195274 3.71578 0.246653Z" fill="#5ED19C"/>
</g>
<defs>
<clipPath id="clip0">
<rect width="25.1397" height="26.3058" fill="white" transform="translate(0.960938)"/>
</clipPath>
</defs>
</svg>
