<svg width="26" height="22" viewBox="0 0 26 22" fill="none" xmlns="http://www.w3.org/2000/svg">
<path d="M0.258003 19.5091C2.98801 19.7659 5.44797 19.0466 7.68697 17.2895C5.34486 17.0737 3.77854 15.8509 2.90454 13.5594C3.67052 13.657 4.38739 13.6827 5.14845 13.4669C2.62467 12.6449 1.2793 10.9186 1.09763 8.13385C1.85378 8.50378 2.56575 8.77094 3.40537 8.78122C1.90779 7.60465 1.14182 6.07871 1.17128 4.15715C1.18601 3.27344 1.41187 2.44111 1.85869 1.65502C4.63289 5.05114 8.11415 6.93159 12.4007 7.245C12.3761 7.04976 12.3614 6.89563 12.3417 6.73635C11.9882 3.88999 13.7558 1.30051 16.4564 0.761036C18.1504 0.421938 19.6479 0.889482 20.9147 2.11229C21.1112 2.29725 21.2781 2.33836 21.5236 2.27156C22.5105 2.00953 23.4484 1.62933 24.3567 1.11555C24.0081 2.3178 23.2912 3.22207 22.319 3.98247C22.54 3.94137 22.7659 3.91054 22.9868 3.8643C23.2176 3.81292 23.4484 3.7564 23.6791 3.68961C23.9001 3.62796 24.1161 3.55603 24.3322 3.47896C24.5531 3.40189 24.7741 3.31455 25.0343 3.26831C24.9067 3.45327 24.7839 3.64851 24.6464 3.82833C24.0768 4.5836 23.4189 5.24638 22.6971 5.83723C22.6235 5.89889 22.5596 6.03247 22.5645 6.12495C22.6038 7.94889 22.3583 9.72659 21.7937 11.4529C20.684 14.8542 18.7494 17.608 15.8475 19.5758C14.4138 20.5469 12.8475 21.184 11.1731 21.5539C9.51352 21.9187 7.84409 21.9855 6.16975 21.78C4.4905 21.5745 2.89472 21.0555 1.39223 20.2438C0.994517 20.0331 0.61153 19.7968 0.223633 19.5707C0.238363 19.5502 0.248183 19.5296 0.258003 19.5091Z" fill="#5ED19C"/>
</svg>
