<svg width="10" height="18" viewBox="0 0 10 18" fill="none" xmlns="http://www.w3.org/2000/svg">
<path d="M6.8387 17.5631C6.7508 17.5666 6.69452 17.5735 6.6383 17.5735C5.43596 17.5735 4.2371 17.57 3.03476 17.5769C2.86604 17.5769 2.82032 17.5321 2.82032 17.3665C2.8238 14.6213 2.8238 11.8726 2.8238 9.12737C2.8238 9.05498 2.8238 8.98253 2.8238 8.88943C2.16992 8.88943 1.5336 8.88943 0.886719 8.88943C0.886719 7.90995 0.886719 6.94774 0.886719 5.95796C0.953517 5.95796 1.0168 5.95796 1.07656 5.95796C1.6039 5.95796 2.13122 5.95453 2.65862 5.9614C2.79218 5.9614 2.82734 5.92348 2.82734 5.79585C2.82032 5.02679 2.82032 4.25426 2.82734 3.48519C2.83088 2.94717 2.91878 2.42296 3.17186 1.93668C3.53396 1.25037 4.10702 0.805481 4.83128 0.529578C5.42186 0.301958 6.04412 0.219188 6.66992 0.208841C7.68944 0.195046 8.70896 0.201944 9.72854 0.198495C9.82346 0.198495 9.9008 0.195046 9.9008 0.3261C9.89726 1.27452 9.89726 2.22293 9.89726 3.17134C9.89726 3.18169 9.89372 3.19204 9.87968 3.23687C9.81992 3.23687 9.75314 3.23687 9.6863 3.23687C9.05354 3.23687 8.42072 3.23342 7.7879 3.23687C7.42226 3.23687 7.12694 3.38172 6.94064 3.69556C6.88436 3.78868 6.8492 3.90938 6.8492 4.01975C6.8387 4.60604 6.8492 5.19233 6.84218 5.77864C6.84218 5.91656 6.88436 5.95453 7.02146 5.95453C7.9004 5.94761 8.77928 5.95105 9.65822 5.95105C9.72854 5.95105 9.79532 5.95105 9.91484 5.95105C9.79178 6.93739 9.67226 7.90309 9.5492 8.87908C8.63516 8.87908 7.74572 8.87908 6.8387 8.87908C6.8387 11.7795 6.8387 14.6627 6.8387 17.5631Z" fill="white"/>
</svg>
