<svg width="14" height="18" viewBox="0 0 14 18" fill="none" xmlns="http://www.w3.org/2000/svg">
<path d="M6.97595 0.000244141C3.3814 0.000244141 0.457031 2.92461 0.457031 6.51913C0.457031 10.98 6.29082 17.5289 6.5392 17.8055C6.7725 18.0654 7.17982 18.0649 7.41269 17.8055C7.66107 17.5289 13.4949 10.98 13.4949 6.51913C13.4948 2.92461 10.5705 0.000244141 6.97595 0.000244141ZM6.97595 9.79896C5.16744 9.79896 3.69615 8.32763 3.69615 6.51913C3.69615 4.71062 5.16748 3.23933 6.97595 3.23933C8.78442 3.23933 10.2557 4.71065 10.2557 6.51916C10.2557 8.32767 8.78442 9.79896 6.97595 9.79896Z" fill="white"/>
</svg>
