<svg width="18" height="18" viewBox="0 0 18 18" fill="none" xmlns="http://www.w3.org/2000/svg">
<g clip-path="url(#clip0)">
<path d="M17.4109 9.20386C17.4109 10.425 17.3863 11.6496 17.4179 12.8707C17.4706 15.0322 16.1118 16.7025 14.3809 17.4463C13.6857 17.7446 12.9555 17.9025 12.2006 17.9025C9.8377 17.906 7.47134 17.9376 5.10845 17.892C3.32839 17.8569 1.86432 17.113 0.814541 15.6463C0.263322 14.8743 0 13.9971 0 13.0462C0 10.5302 0 8.01783 0 5.5019C0 3.44917 1.00063 2.01401 2.77717 1.08063C3.54958 0.6771 4.3887 0.505162 5.26293 0.501653C7.55559 0.501653 9.85175 0.487617 12.1444 0.508672C13.9245 0.522707 15.4096 1.20344 16.505 2.63509C17.1159 3.43514 17.4109 4.35448 17.4109 5.36506C17.4109 6.64228 17.4109 7.92307 17.4109 9.20386ZM1.29555 9.20386C1.29555 10.4916 1.29555 11.7759 1.29555 13.0637C1.29555 13.6392 1.42896 14.1795 1.72739 14.6673C2.51034 15.9481 3.69353 16.5727 5.16111 16.5972C7.51697 16.6323 9.87631 16.6112 12.2357 16.6042C12.815 16.6042 13.3768 16.4849 13.8999 16.2358C15.3253 15.555 16.1223 14.4708 16.1153 12.8426C16.1013 10.3513 16.1118 7.8599 16.1118 5.36856C16.1118 4.66326 15.9117 4.01762 15.4939 3.44917C14.6864 2.35789 13.5699 1.82102 12.2357 1.80698C9.88334 1.77891 7.53103 1.79646 5.17866 1.79996C4.6766 1.79996 4.19208 1.90172 3.72162 2.07717C2.42958 2.5579 1.22884 3.7755 1.28501 5.56857C1.32715 6.78268 1.29555 7.99327 1.29555 9.20386Z" fill="white"/>
<path d="M8.72465 12.9234C6.46008 12.9234 4.63438 11.1198 4.63086 8.87402C4.62736 6.66339 6.4671 4.85279 8.71762 4.85279C10.9752 4.84928 12.8079 6.65636 12.8114 8.88459C12.8114 11.1093 10.9822 12.9198 8.72465 12.9234ZM8.72465 11.6251C10.266 11.6251 11.5159 10.3934 11.5123 8.87756C11.5088 7.37573 10.2589 6.1476 8.72465 6.1476C7.18333 6.1476 5.92641 7.37224 5.92641 8.88459C5.92995 10.4004 7.18333 11.6285 8.72465 11.6251Z" fill="white"/>
<path d="M13.2864 3.62476C13.7604 3.62476 14.1466 4.0283 14.1466 4.52308C14.1431 5.01785 13.7533 5.41789 13.2794 5.41437C12.8124 5.41087 12.4297 5.01084 12.4297 4.52658C12.4262 4.03181 12.8124 3.62476 13.2864 3.62476Z" fill="white"/>
</g>
<defs>
<clipPath id="clip0">
<rect width="17.4194" height="18" fill="white"/>
</clipPath>
</defs>
</svg>
