<svg width="22" height="22" viewBox="0 0 22 22" fill="none" xmlns="http://www.w3.org/2000/svg">
<path d="M17.5907 10.8952C17.5907 10.4342 17.2218 10.0607 16.767 10.0607H11.726V5.02719V5.02704C11.726 4.56447 11.3506 4.1893 10.8884 4.1893C10.4258 4.1893 10.0505 4.56447 10.0505 5.02704V10.892C10.0505 11.3547 10.4258 11.7299 10.8884 11.7299H16.7674C17.2218 11.7299 17.5907 11.3562 17.5907 10.8952ZM20.1064 10.8899C20.1064 15.9809 15.98 20.108 10.8901 20.108C5.79989 20.108 1.67376 15.9809 1.67376 10.8899C1.67376 5.79896 5.79989 1.6719 10.8901 1.6719C15.98 1.6719 20.1064 5.79896 20.1064 10.8899ZM21.7799 10.8899C21.7799 4.87554 16.9044 0 10.8901 0C4.87554 0 0 4.87554 0 10.8899C0 16.9044 4.87554 21.7799 10.8901 21.7799C16.9044 21.7799 21.7799 16.9044 21.7799 10.8899Z" fill="white"/>
</svg>
